<svg xmlns="http://www.w3.org/2000/svg" viewBox="0 0 185.86 182.99"><defs><style>.cls-1{fill:#5d3e98;}.cls-2{fill:#5bc096;}.cls-3{fill:#ef7822;}</style></defs><g id="Layer_2" data-name="Layer 2"><g id="Layer_1-2" data-name="Layer 1"><path class="cls-1" d="M26.39,86.86c6.19,2,11.65-4.34,14.4-9,3.08-5.25,4.8-12.35,2.51-18.21a10.91,10.91,0,0,0-2-3.25,38.48,38.48,0,0,0,7.27-2.1,32.41,32.41,0,0,0,6.29-2.86c5-3,12-8.72,10.59-15.35C64,29.14,55.77,28,50,29.13,43.81,30.39,38.3,34,34,38.53c-.78.61-1.54,1.23-2.26,1.88-2.47,2.2-4.74,5-4.85,8.46a6.4,6.4,0,0,0,3.21,5.87l-.6.34c-3.84,2.43-5.48,6.41-6,10.66a9.55,9.55,0,0,0-.21,3.82c0,1.06.06,2.11.15,3.13C21.87,77.82,20.3,84.87,26.39,86.86Zm4.12-39.35c.55-2.87,2.59-5.24,4.54-7.3l.28-.28a34.55,34.55,0,0,1,12.3-6c2.62-.66,5.53-.85,8,.4a6.55,6.55,0,0,1,3.68,5.84c.13,5.12-4.13,8.68-8.28,10.85-.93.48-1.88.91-2.85,1.31A30.52,30.52,0,0,1,37.77,54l-.19-.07a9.08,9.08,0,0,0-3.88-.32C31.16,52.86,30,50,30.51,47.51ZM26.38,75.89a10.34,10.34,0,0,0,6.34-2.83c1.77-1.66,3.71-4.39,3.36-7a3.8,3.8,0,0,0-5-3A8.89,8.89,0,0,0,26.82,66a11.54,11.54,0,0,1,5.76-7.27c6.37-3.17,7.64,5.79,7.1,10a16.86,16.86,0,0,1-7.22,11.74c-1.9,1.29-4.86,3-6.34.21A5.29,5.29,0,0,1,26.38,75.89Zm1-4.86a10.18,10.18,0,0,1,1.44-2.24c.62-.72,1.7-2,2.67-2.21,1.18-.27.93.65.62,1.28a4.08,4.08,0,0,1-1.36,1.41,21.29,21.29,0,0,1-3,1.54Z"/><path class="cls-1" d="M66.4,79.14a.94.94,0,0,0,.36-.26,12.79,12.79,0,0,0,.87-1.1,9.2,9.2,0,0,0,2.52-6.47A6.06,6.06,0,0,0,68.6,67.7c1.57-.54,2.9-2.1,2.22-3.82-.82-2.12-4.29-1.69-3.9.78,0,.1,0,.19.07.28-.87.15-1.65-1-1.82-1.73a7,7,0,0,1,.07-2.91A15.53,15.53,0,0,1,67.48,55a45.73,45.73,0,0,1,7.88-8.91,52.35,52.35,0,0,1,20.27-12,.9.9,0,0,0,.67-.81,1,1,0,0,0-.84-1.72,45.9,45.9,0,0,0-15.25,7A58.74,58.74,0,0,0,67.78,49.72C65.17,53,62.38,57.56,62.56,62a7.93,7.93,0,0,0-1.43-1.54c-2.75-2.28-6.67-1.82-9.4.22a13.54,13.54,0,0,0-3.92,5,13.56,13.56,0,0,0-1.37,3.25c-.19.51-.37,1-.55,1.52a1,1,0,0,0,0,.52A12.75,12.75,0,0,0,46,77.3c.79,2.7,2.76,5.5,5.79,5.74,3.32.26,6.17-2.43,8.08-4.82a20.8,20.8,0,0,0,3.62-7,3.83,3.83,0,0,1,1.74-1.5,1.88,1.88,0,0,1,2.4,1.61,6.82,6.82,0,0,1-1.47,5.17l-.18.23-.4.44c-.24.25-.5.53-.79.81a8.49,8.49,0,0,1-1.51,1.13,1.94,1.94,0,0,1-2-.12c-.91-.63-2,.78-1.18,1.53a3,3,0,0,0,3.2.63l.06,0a2.34,2.34,0,0,0,.24-.09,7.61,7.61,0,0,0,2.32-1.46Zm-13,.23-.2,0c-3.61.6-5.06-2.68-5.22-5.71a13.23,13.23,0,0,1,.72-5,15.55,15.55,0,0,1,2.41-3.57,1.06,1.06,0,0,0,.37-.31,3.83,3.83,0,0,1,5.22-.52,6.26,6.26,0,0,1,2.34,5.28A12.24,12.24,0,0,1,53.42,79.37ZM64.07,66.3v0l0,0Z"/><path class="cls-1" d="M152.57,71a46.25,46.25,0,0,0-15.24,7A59.29,59.29,0,0,0,124.9,89.2c-3,3.71-6.24,9.24-4.94,14.21a5.4,5.4,0,0,0,3,3.66,3.17,3.17,0,0,0-.41.12,4.72,4.72,0,0,0-1.11.43c-1.1.6-.12,2.28,1,1.68l.32-.15a1,1,0,0,0,.36-.1l.11,0a2.62,2.62,0,0,1,1.66.22.6.6,0,0,1,.08.08,1,1,0,0,0,.08.14c1.77,2.51,2.29,6.55-.92,8.22a3.82,3.82,0,0,1-4.19-.59,5.17,5.17,0,0,1-1.52-4.93,1,1,0,0,0-.3-.91,18.12,18.12,0,0,0-2.59-8,.9.9,0,0,0-1.08-.42c-.76-.23-1.71.55-1.15,1.38a.7.7,0,0,1,.06.09.86.86,0,0,0,.12.31c1.69,2.92,2.51,6.51,1.34,9.78a8,8,0,0,1-6.9,5.42,7.7,7.7,0,0,1-7-4.58,8.91,8.91,0,0,1-.46-5.82c1.12-3.55,4.26-6.72,8.22-5.83a1,1,0,0,0,1.21-1.11.89.89,0,0,0-.44-1.51A10.43,10.43,0,0,0,99,105.53a12.82,12.82,0,0,0-.8,12.34A10.41,10.41,0,0,0,108.36,124a10.9,10.9,0,0,0,7.7-4.83,5.83,5.83,0,0,0,4.62,3.62,7.46,7.46,0,0,0,7.3-4,9.68,9.68,0,0,0,.33-8.81,5.45,5.45,0,0,0-3-2.6l0,0c1.76-.36,3.43-2,2.69-3.94-.83-2.11-4.29-1.69-3.9.78a1.28,1.28,0,0,0,.07.28c-.88.15-1.65-1-1.83-1.73a7.14,7.14,0,0,1,.08-2.91,15.59,15.59,0,0,1,2.23-5.34,46,46,0,0,1,7.88-8.9,52.41,52.41,0,0,1,20.28-12,.9.9,0,0,0,.67-.8A1,1,0,0,0,152.57,71Z"/><path class="cls-1" d="M96,74.43a5.3,5.3,0,0,1,2.16-4.24,3.89,3.89,0,0,1,4.64.11c2.78,2.31,1.34,6.19-.94,8.21a1,1,0,0,0-.14.15l-.09,0a2.58,2.58,0,0,1-1.66-.16.47.47,0,0,1-.09-.06,1.05,1.05,0,0,0-.34-.19l-.26-.2c-.93-.84-2.31.53-1.38,1.37a4.57,4.57,0,0,0,1,.66,3.31,3.31,0,0,0,2.73.53,5.53,5.53,0,0,0,3.51-1.82,9.67,9.67,0,0,0,1.72-8.64,7.46,7.46,0,0,0-6.17-5.6,5.81,5.81,0,0,0-5.37,2.48,11.08,11.08,0,0,0-5-5.9,10.17,10.17,0,0,0-11.63,1.94,12.85,12.85,0,0,0-3.55,11.33,10.55,10.55,0,0,0,9.66,8.81.91.91,0,0,0,.8-1.41,1,1,0,0,0-.88-1.31c-4,0-6.36-3.73-6.7-7.39a9.07,9.07,0,0,1,1.55-5.42,7.73,7.73,0,0,1,8-3.18A8,8,0,0,1,93,71c.57,3.55-1.1,7-3.48,9.57a1.16,1.16,0,0,0-.19.28.46.46,0,0,1-.07.07,1,1,0,0,0,.8,1.64.85.85,0,0,0,1.11-.16,18,18,0,0,0,4.37-7.21A.91.91,0,0,0,96,74.43Z"/><path class="cls-1" d="M98.32,90.82a56.25,56.25,0,0,0-.79-8.88c-.21-1.23-2.09-.71-1.88.52a53.21,53.21,0,0,1,.73,8.36A1,1,0,0,0,98.32,90.82Z"/><path class="cls-1" d="M105.34,85.45c.55,1.12,2.23.14,1.68-1-1.33-2.75,1.57-5.17,4.19-4.68s4.38,3.28,4.46,5.92a5.28,5.28,0,0,1-.76,3c-.88,1.32-2.41,1.39-3.84,1.56l-8.77,1a78.91,78.91,0,0,0-.61-9.35c-.15-1.23-2.1-1.24-1.94,0a81,81,0,0,1,.62,10.56,1,1,0,0,0,1.5.78l7.35-.83c1.85-.21,4.13-.15,5.78-1.14,2.89-1.73,3.09-5.87,2-8.7-1.28-3.26-4.71-5.64-8.27-4.62A5.37,5.37,0,0,0,105.34,85.45Z"/><path class="cls-1" d="M42.83,102.51a9.65,9.65,0,0,0-1.26-.7A9.17,9.17,0,0,0,39,100.73a6.69,6.69,0,0,0-5,.82h0a7.6,7.6,0,0,0-4,4.09,7.12,7.12,0,0,0-3.14-2.41,7.34,7.34,0,0,0-9.34,4,1,1,0,0,0-.06.64c-.35,1.07,1.21,1.94,1.72.85A6.34,6.34,0,0,1,23.34,105,4.12,4.12,0,0,1,28,107.11c1.13,2.35.53,5.18-.78,7.46a3.29,3.29,0,0,0-.94-2.45c-4.75-5.2-15.16,4.72-10,9.62,2.52,2.4,6.75.86,9.24-.79a13.88,13.88,0,0,0,4.89-5.71,12.61,12.61,0,0,0,3.11,4.39c4.27,3.82,11,3.49,13.87-1.85S47.58,105.66,42.83,102.51ZM22.5,118l-.42.26c-.79.45-3.19,1.74-3.63.3-.3-.94,1.24-2.7,1.85-3.3a2.93,2.93,0,0,1,3.18-1,1.81,1.81,0,0,1,.64.45C24.42,115.83,23.43,117.07,22.5,118Zm20.94-.2s-.09.11-.15.16c-3.78,3.8-9.63-.9-11.14-4.73a7.58,7.58,0,0,1-.5-3.53,7.62,7.62,0,0,1,2.88-4.25,6.22,6.22,0,0,1,.56-.32,4.87,4.87,0,0,1,4,.53A11.26,11.26,0,0,1,44,111.83,7.84,7.84,0,0,1,43.44,117.78Z"/><path class="cls-1" d="M7.81,114.7c-1.28.88-2.81,4.66-.06,4.59.66,0,.95-.38,1.42-.77s.24-.59.95-.57a1.24,1.24,0,0,1,1.09,1.28c.1,1.66-1.58,2.32-3.06,2.54-3.51-.34-5.09-4.56-4.48-7.67,1.36-6.85,8.39-11.75,15-12.44a1.05,1.05,0,0,0,.9-1.25,1,1,0,0,0-1.07-1.5A29.13,29.13,0,0,0,3.77,107.1c-3.49,3.84-5.36,9.87-2,14.42,2.65,3.62,8.17,4.58,11.28.93a5.49,5.49,0,0,0,.51-6.55A4.18,4.18,0,0,0,7.81,114.7Z"/><path class="cls-1" d="M55.57,101.4a3.46,3.46,0,0,0-4,1.11,3.73,3.73,0,0,0-.72,1.9.86.86,0,0,0-.1.78c.05.15.11.3.17.45a3.71,3.71,0,0,0,.45,1.2c1.4,2.38,5.37,4.36,7.45,1.71S58.37,102.31,55.57,101.4Zm-.41,4.78c-.4-.27-1.7-2.09-.5-2a.93.93,0,0,0,.24,0l.26.13a6.38,6.38,0,0,1,1.19.79,1.86,1.86,0,0,1,.41.62.68.68,0,0,1,0,.2C56.66,106.68,55.64,106.5,55.16,106.18Z"/><path class="cls-1" d="M55.57,112.32a3.48,3.48,0,0,0-4,1.11,3.8,3.8,0,0,0-.72,1.91.86.86,0,0,0-.1.78c.05.15.11.3.17.45a3.89,3.89,0,0,0,.45,1.2c1.4,2.37,5.37,4.36,7.45,1.7S58.37,113.23,55.57,112.32Zm-.41,4.78c-.4-.27-1.7-2.09-.5-2a.93.93,0,0,0,.24,0,2.1,2.1,0,0,1,.26.13,5.51,5.51,0,0,1,1.19.79,1.82,1.82,0,0,1,.41.61.71.71,0,0,1,0,.2C56.66,117.61,55.64,117.43,55.16,117.1Z"/><path class="cls-1" d="M113.85,61.08a3.71,3.71,0,0,0,.45,1.2c1.4,2.38,5.38,4.36,7.45,1.71s-.42-6.24-3.22-7.15a3.45,3.45,0,0,0-4,1.11,3.65,3.65,0,0,0-.73,1.9.83.83,0,0,0-.09.78C113.74,60.78,113.79,60.93,113.85,61.08Zm3.77-1.47a.93.93,0,0,0,.24,0l.26.13a6.38,6.38,0,0,1,1.19.79,1.86,1.86,0,0,1,.41.62.68.68,0,0,1,0,.2c-.12.81-1.13.63-1.62.31S116.42,59.53,117.62,59.61Z"/><path class="cls-1" d="M113.85,72a3.89,3.89,0,0,0,.45,1.2c1.4,2.37,5.38,4.36,7.45,1.7s-.42-6.24-3.22-7.15a3.46,3.46,0,0,0-4,1.11,3.72,3.72,0,0,0-.73,1.91.83.83,0,0,0-.09.78C113.74,71.71,113.79,71.86,113.85,72Zm3.77-1.48a.93.93,0,0,0,.24,0,2.1,2.1,0,0,1,.26.13,5.51,5.51,0,0,1,1.19.79,1.82,1.82,0,0,1,.41.61.71.71,0,0,1,0,.2c-.12.82-1.13.64-1.62.31S116.42,70.45,117.62,70.53Z"/><path class="cls-1" d="M87.36,121l.14-.09a13.55,13.55,0,0,0,5.73-8.18c.87-3.89-.5-8-4.4-9.54a7.34,7.34,0,0,0-9.34,4,1,1,0,0,0-.06.64c-.35,1.07,1.22,1.94,1.72.85A6.34,6.34,0,0,1,85.29,105,4.11,4.11,0,0,1,90,107.11c1.13,2.35.53,5.18-.78,7.46a3.25,3.25,0,0,0-.94-2.45c-4.75-5.2-15.16,4.72-10,9.62,1.52,1.45,3.66,1.46,5.67.88a3.31,3.31,0,0,0-.15.33,3,3,0,0,0,2.74,3.62,2.45,2.45,0,0,0,2.63-2.26,8.53,8.53,0,0,1,1.68,1.5A6.38,6.38,0,0,1,92,129.54,7.64,7.64,0,0,1,87.66,136c-5.72,2.89-12.16-.77-15.92-5.12a16.58,16.58,0,0,1-3.9-7.87,19.7,19.7,0,0,1,1-9.47A42.61,42.61,0,0,1,77,99.18a45.57,45.57,0,0,1,12-10c.8-.42,1.61-.82,2.44-1.19,1.09-.49.23-2.06-.85-1.73a1,1,0,0,0-.51.11c-.65.34-1.29.69-1.93,1A48.85,48.85,0,0,0,73.4,99c-4.73,5.52-9.14,12.66-9.54,20.1-.39,7.26,4,14.37,9.79,18.49s14.49,4.82,19.3-1.08a9.94,9.94,0,0,0,1.79-10A8.89,8.89,0,0,0,87.36,121ZM84.45,118l-.42.26c-.79.45-3.19,1.74-3.63.3-.29-.94,1.24-2.7,1.85-3.3a2.93,2.93,0,0,1,3.18-1,1.81,1.81,0,0,1,.64.45C86.37,115.83,85.39,117.07,84.45,118Z"/><path class="cls-2" d="M77.86,143.86c-4.58,9.82-9.4,19.52-15.39,28.61a41.58,41.58,0,0,1-2.81,3.78c-.35.41-1.07.5-1.61.75a4,4,0,0,1-.35-1.63c1.12-5.11,2-10.33,3.56-15.32,2.18-6.83,4.51-13.59,6.87-20.41A22.14,22.14,0,0,0,77.86,143.86Z"/><path class="cls-3" d="M119.22,4.39c-1,4.69-4.19,8.43-6.27,13.3l4.52-2.36c-.51,2.36-.9,4.23-1.39,6.53l5.23-3c-.18,2.21-.33,4-.52,6.33,1.59-1.79,2.84-3.18,4.44-5,.34,1.81.58,3.11.85,4.51,1.9-2.16,2.17-7.62.11-12.87-1.61-4.1-3.88-7.94-5.82-11.8-.11,0,.16,0,.3.07,5.55,4.91,9.42,10.8,9.63,18.4.28,9.73-4.84,16.15-14.42,18.61-3.75,1-3.76,1-5.53-2.54-3.19-6.28-3.33-12.59.37-18.66,2.47-4.05,5.32-7.86,8-11.78Z"/><path class="cls-2" d="M112,47.82,107.89,60c-4.62-1.85-8.09.24-11.53,2.93q3.33-6.69,6.67-13.38a26,26,0,0,0,1.3-2.58c.58-1.62,1.55-1.87,3-1.17S110.32,47.1,112,47.82Z"/><path class="cls-2" d="M109,38.28c1.38,1.84,2.89,2.79,5.31,2.12l-1.4,4.72-6.14-2.54Z"/><path class="cls-2" d="M142.59,47.15a50.5,50.5,0,0,1,5.7,3.81c1.58,1.28,3.09,2.63,4.7,3.87s3.41,2.71,5,4.14,3.21,2.6,4.77,4a62,62,0,0,1,4.59,4.44c.6.64,1.19,1.31,1.75,2,.84,1,1.11,1.36,1.88,2.35-.25-.33.1.13.13.16l.42.57c.27.38.55.76.81,1.15.6.87,1.16,1.76,1.7,2.67s.91,1.63,1.33,2.47c.18.36.36.73.53,1.1.1.21.19.42.29.64s-.09-.26.12.29a36,36,0,0,1,1.73,5.64c.1.45.19.91.27,1.36,0,.23.07.46.11.69,0-.15-.07-.64,0,.09s.16,1.74.18,2.62,0,1.65-.07,2.47c0,.41-.08.82-.11,1.24.06-.77,0-.23,0-.06l-.15.92a34.62,34.62,0,0,1-1.27,4.8c-.14.39-.28.77-.43,1.16-.25.64,0,.11,0,0l-.25.57c-.39.83-.83,1.65-1.28,2.45s-.83,1.39-1.3,2.06l-.36.49c.09-.12.4-.44,0,0s-.62.67-.94,1c-.53.53-1.1,1-1.68,1.52s-.15.11,0,0c-.16.12-.32.24-.49.35-.41.29-.84.56-1.28.82a17.73,17.73,0,0,1-2.17,1.11c.62-.27-.45.16-.59.21l-1.29.43c-3.22,1-6.57,1.48-9.86,2.25s-7,2-9.49,4.39a15.09,15.09,0,0,0-3.19,4.08,17,17,0,0,0-1.72,5.43,26.6,26.6,0,0,0,1,11.65c.57,2,1.31,4,2,6A33.19,33.19,0,0,1,145,153a19.31,19.31,0,0,1,0,5.69,15.28,15.28,0,0,1-.61,2.3c-.07.19-.47,1.14-.21.57-.18.4-.37.78-.58,1.16-.37.68-.83,1.3-1.24,1.95-.27.43.35-.38,0,0-.13.14-.25.3-.37.45-.29.33-.58.65-.89,1a20.23,20.23,0,0,1-1.74,1.6l-.46.38c.1-.08.58-.43,0,0-.37.26-.74.52-1.12.77a40.68,40.68,0,0,1-4.4,2.52c-.37.19-.75.37-1.13.54l-.57.25c.12-.05.74-.3.07,0s-1.65.64-2.49.92a43.18,43.18,0,0,1-5,1.32c-1,.2-2,.38-2.93.54l-.74.11c-.14,0-.78.11,0,0a18.12,18.12,0,0,0-2.32.39c-1,.26-1.89.49-2.85.67a5.85,5.85,0,0,1-.93.17l-1.68.16a44.77,44.77,0,0,1-6.13.05,64,64,0,0,1-11.74-1.73A57,57,0,0,1,83.46,171c-1.85-.89-3.64-1.87-5.39-2.92-2.31-1.4-4.41,2.21-2.11,3.6a73.3,73.3,0,0,0,23.71,9.56,95,95,0,0,0,13.14,1.42l6.31.28a29.12,29.12,0,0,0,6.92-1c7.23-1.54,14.59-4.72,19.57-10.36a21.33,21.33,0,0,0,5.1-9.66A23,23,0,0,0,149,148.38a58.93,58.93,0,0,1-3.92-12.21c-.61-3.37-.66-7.08,1.48-9.94a8.66,8.66,0,0,1,.81-.9c.13-.14.27-.27.41-.4.65-.6-.19.11.22-.19a20.85,20.85,0,0,1,2-1.19c.33-.18.67-.34,1-.51.8-.41-.33.12.17-.08l.53-.21a24.47,24.47,0,0,1,2.35-.72c3.4-.88,6.87-1.43,10.28-2.25a26.77,26.77,0,0,0,10-4.37A28.86,28.86,0,0,0,182,107a30.55,30.55,0,0,0,2.83-22.8,44.25,44.25,0,0,0-13-21.24,53,53,0,0,0-10.69-8,87.67,87.67,0,0,0-12.09-5.29,66.57,66.57,0,0,1-6.3-2.78.17.17,0,0,0-.17.29Z"/><path class="cls-2" d="M94.05,15.39A5.66,5.66,0,0,0,93.59,14a7.86,7.86,0,0,0-1-1.22,18.37,18.37,0,0,0-3-2.43,48.76,48.76,0,0,0-6.36-3.63A51.74,51.74,0,0,0,69.32,2.6a57.55,57.55,0,0,0-14.94-.72A57.81,57.81,0,0,0,40,5.13,52,52,0,0,0,16.48,22.58,58,58,0,0,0,5.72,48.64a48.89,48.89,0,0,0,.22,16.28A73.53,73.53,0,0,0,7.8,72.36c.37,1.28.8,2.55,1.28,3.79a8.67,8.67,0,0,0,2.08,3.45,1,1,0,0,0,1.72-.71,10.48,10.48,0,0,0-.67-3.28c-.38-1.06-.72-2.14-1-3.23A35.48,35.48,0,0,1,10,65.9a71.12,71.12,0,0,1,.27-13.21,53.68,53.68,0,0,1,8.81-24.3,48.77,48.77,0,0,1,19.75-17,52.68,52.68,0,0,1,13-4,73,73,0,0,1,13.36-.78,45.8,45.8,0,0,1,15,3.14,60.53,60.53,0,0,1,6.88,2.94c1.14.59,2.28,1.16,3.41,1.76.56.29,1.12.5,1.7.74a5.25,5.25,0,0,0,1.77.28s0,0,0,0Z"/><path class="cls-2" d="M29.53,128.08a2.7,2.7,0,0,0-.18,1.59,6.36,6.36,0,0,0,1,2.06c.86,1.27,1.88,2.46,2.85,3.65a89.8,89.8,0,0,0,6.26,6.83q3.21,3.19,6.63,6.17,1.78,1.55,3.62,3c1.17,1,2.76,2.69,4.27,2.93a2.44,2.44,0,0,0,2.72-3.53c-.6-1.32-2.4-2.25-3.53-3.14s-2.36-1.89-3.51-2.87c-2.32-1.94-4.58-3.95-6.8-6s-4.36-4.18-6.54-6.27c-1-1-2-2.06-3.1-3a8.24,8.24,0,0,0-1.9-1.36,2.81,2.81,0,0,0-1.69-.14.11.11,0,0,0-.1.07Z"/></g></g></svg>