<svg xmlns="http://www.w3.org/2000/svg" viewBox="0 0 149.98 147.66"><defs><style>.cls-1{fill:#fff;}.cls-2{fill:#5bc096;}.cls-3{fill:#ef7822;}</style></defs><g id="Layer_2" data-name="Layer 2"><g id="Layer_1-2" data-name="Layer 1"><path class="cls-1" d="M21.3,70.09c5,1.63,9.4-3.5,11.62-7.29,2.48-4.23,3.87-10,2-14.69a8.66,8.66,0,0,0-1.6-2.62,30.8,30.8,0,0,0,5.87-1.7,26.7,26.7,0,0,0,5.08-2.31c4-2.39,9.68-7,8.54-12.38-1.2-5.59-7.83-6.55-12.5-5.59a25.42,25.42,0,0,0-12.92,7.58c-.64.49-1.25,1-1.83,1.52-2,1.78-3.82,4-3.91,6.83a5.14,5.14,0,0,0,2.59,4.73c-.16.09-.33.17-.49.27-3.1,2-4.42,5.18-4.85,8.61a7.7,7.7,0,0,0-.18,3.08c0,.85.05,1.7.12,2.53C17.64,62.79,16.38,68.48,21.3,70.09Zm3.32-31.76c.45-2.31,2.09-4.22,3.66-5.88l.22-.23a28.08,28.08,0,0,1,9.93-4.84,9.29,9.29,0,0,1,6.47.32,5.26,5.26,0,0,1,3,4.71c.11,4.14-3.33,7-6.68,8.76-.74.39-1.51.73-2.29,1a24.57,24.57,0,0,1-8.42,1.32.94.94,0,0,1-.15-.06,7.25,7.25,0,0,0-3.14-.25C25.14,42.66,24.23,40.32,24.62,38.33ZM21.29,61.24A8.41,8.41,0,0,0,26.4,59c1.43-1.34,3-3.55,2.71-5.61A3.07,3.07,0,0,0,25.06,51a7.18,7.18,0,0,0-3.42,2.33,9.33,9.33,0,0,1,4.65-5.87c5.14-2.55,6.16,4.68,5.73,8.09A13.64,13.64,0,0,1,26.2,65c-1.54,1-3.93,2.4-5.12.17A4.25,4.25,0,0,1,21.29,61.24Zm.77-3.92a8.2,8.2,0,0,1,1.16-1.81c.5-.58,1.37-1.61,2.15-1.78,1-.22.76.52.51,1a3.43,3.43,0,0,1-1.1,1.14,19.19,19.19,0,0,1-2.38,1.24A3.65,3.65,0,0,0,22.06,57.32Z"/><path class="cls-1" d="M53.58,63.86a.79.79,0,0,0,.29-.21,11,11,0,0,0,.7-.89,7.37,7.37,0,0,0,2-5.22,4.75,4.75,0,0,0-1.25-2.91,2.47,2.47,0,0,0,1.8-3.09c-.67-1.7-3.46-1.36-3.15.63a1.28,1.28,0,0,0,.06.23c-.71.12-1.33-.81-1.47-1.4a5.59,5.59,0,0,1,0-2.34,12.52,12.52,0,0,1,1.81-4.31,36.89,36.89,0,0,1,6.36-7.19,42.13,42.13,0,0,1,16.36-9.67.72.72,0,0,0,.54-.65A.8.8,0,0,0,77,25.45a37.26,37.26,0,0,0-12.31,5.66,48.05,48.05,0,0,0-10,9c-2.1,2.6-4.35,6.32-4.21,9.89a6.35,6.35,0,0,0-1.15-1.24,6.16,6.16,0,0,0-7.59.18,11,11,0,0,0-3.16,4,11,11,0,0,0-1.11,2.62c-.15.42-.29.83-.44,1.23a.77.77,0,0,0,0,.42,10.24,10.24,0,0,0,.09,5.13c.64,2.18,2.23,4.44,4.68,4.63,2.67.21,5-2,6.52-3.89a17.12,17.12,0,0,0,2.92-5.62,3,3,0,0,1,1.4-1.21,1.51,1.51,0,0,1,1.93,1.3,5.52,5.52,0,0,1-1.18,4.17l-.15.18-.32.36c-.19.2-.4.43-.64.66a5.57,5.57,0,0,1-1.22.9,1.53,1.53,0,0,1-1.64-.09c-.74-.5-1.6.63-.95,1.24a2.45,2.45,0,0,0,2.58.5h0l.19-.07a6.45,6.45,0,0,0,1.88-1.18Zm-10.47.19-.16,0c-2.92.49-4.09-2.15-4.22-4.6a10.63,10.63,0,0,1,.59-4,12.23,12.23,0,0,1,1.94-2.88.84.84,0,0,0,.3-.24,3.1,3.1,0,0,1,4.21-.43,5.08,5.08,0,0,1,1.89,4.26A9.94,9.94,0,0,1,43.11,64.05ZM51.7,53.5v0l0,0Z"/><path class="cls-1" d="M123.11,57.31A37.21,37.21,0,0,0,110.81,63a47.8,47.8,0,0,0-10,9c-2.42,3-5,7.45-4,11.47a4.39,4.39,0,0,0,2.43,3,1.46,1.46,0,0,0-.32.1,3.4,3.4,0,0,0-.9.34c-.89.49-.1,1.84.79,1.36a1.23,1.23,0,0,1,.26-.12.84.84,0,0,0,.29-.08l.09,0a2.09,2.09,0,0,1,1.33.18l.07.06a.75.75,0,0,0,.07.12c1.42,2,1.84,5.29-.75,6.63a3.07,3.07,0,0,1-3.37-.47,4.17,4.17,0,0,1-1.23-4,.76.76,0,0,0-.25-.73,14.56,14.56,0,0,0-2.08-6.46.73.73,0,0,0-.87-.34c-.62-.19-1.39.44-.93,1.11l0,.07a.87.87,0,0,0,.1.25,9.54,9.54,0,0,1,1.08,7.9,6.5,6.5,0,0,1-5.57,4.37,6.19,6.19,0,0,1-5.6-3.7,7.16,7.16,0,0,1-.38-4.69c.9-2.86,3.44-5.42,6.63-4.71a.81.81,0,0,0,1-.89.72.72,0,0,0-.35-1.22,8.42,8.42,0,0,0-8.47,3.7,10.36,10.36,0,0,0-.64,10A8.41,8.41,0,0,0,87.44,100a8.85,8.85,0,0,0,6.22-3.9A4.65,4.65,0,0,0,97.38,99a6,6,0,0,0,5.89-3.24,7.83,7.83,0,0,0,.27-7.11,4.45,4.45,0,0,0-2.44-2.09l0,0c1.42-.29,2.76-1.65,2.17-3.18-.67-1.7-3.46-1.36-3.15.63a1.28,1.28,0,0,0,.06.23c-.71.12-1.33-.81-1.48-1.4a5.76,5.76,0,0,1,.06-2.34,12.52,12.52,0,0,1,1.81-4.31A36.89,36.89,0,0,1,106.9,69a42.13,42.13,0,0,1,16.36-9.67.74.74,0,0,0,.54-.65A.8.8,0,0,0,123.11,57.31Z"/><path class="cls-1" d="M77.48,60.06a4.25,4.25,0,0,1,1.74-3.42,3.14,3.14,0,0,1,3.74.08c2.24,1.87,1.08,5-.76,6.63l-.11.12-.07,0a2,2,0,0,1-1.35-.13l-.06,0a.8.8,0,0,0-.28-.16L80.12,63c-.75-.68-1.86.43-1.11,1.11a3.91,3.91,0,0,0,.77.53,2.68,2.68,0,0,0,2.21.42,4.47,4.47,0,0,0,2.83-1.46,7.8,7.8,0,0,0,1.38-7,6,6,0,0,0-5-4.52,4.7,4.7,0,0,0-4.34,2,8.87,8.87,0,0,0-4.07-4.76,8.18,8.18,0,0,0-9.38,1.57,10.32,10.32,0,0,0-2.86,9.13,8.51,8.51,0,0,0,7.79,7.12A.74.74,0,0,0,69,66.05.78.78,0,0,0,68.3,65c-3.24,0-5.12-3-5.4-6a7.37,7.37,0,0,1,1.25-4.37,6.26,6.26,0,0,1,6.45-2.57A6.46,6.46,0,0,1,75,57.32,9.41,9.41,0,0,1,72.21,65a1,1,0,0,0-.15.22l-.06.06a.78.78,0,0,0,.64,1.32.71.71,0,0,0,.91-.12,14.77,14.77,0,0,0,3.52-5.82A.75.75,0,0,0,77.48,60.06Z"/><path class="cls-1" d="M79.34,73.28a45.26,45.26,0,0,0-.64-7.16c-.17-1-1.69-.57-1.52.42a42.31,42.31,0,0,1,.59,6.74A.79.79,0,0,0,79.34,73.28Z"/><path class="cls-1" d="M85,69c.44.91,1.8.11,1.36-.79-1.07-2.22,1.26-4.17,3.38-3.78s3.53,2.65,3.6,4.78a4.37,4.37,0,0,1-.61,2.45c-.71,1.06-2,1.12-3.11,1.25l-7.07.8a65.52,65.52,0,0,0-.49-7.54c-.13-1-1.7-1-1.57,0a65.6,65.6,0,0,1,.5,8.52.77.77,0,0,0,1.21.63l5.94-.67c1.49-.17,3.33-.12,4.66-.92,2.32-1.4,2.49-4.74,1.59-7-1-2.63-3.8-4.55-6.67-3.73A4.34,4.34,0,0,0,85,69Z"/><path class="cls-1" d="M34.56,82.72a6.3,6.3,0,0,0-1-.56,7.3,7.3,0,0,0-2.05-.88,5.44,5.44,0,0,0-4,.66h0a6.2,6.2,0,0,0-3.21,3.3,5.67,5.67,0,0,0-2.53-1.94,5.92,5.92,0,0,0-7.54,3.24.83.83,0,0,0-.05.51c-.28.86,1,1.57,1.39.69a5.1,5.1,0,0,1,3.34-3,3.33,3.33,0,0,1,3.79,1.74,6.61,6.61,0,0,1-.63,6,2.68,2.68,0,0,0-.76-2C17.4,86.27,9,94.28,13.16,98.24c2,1.93,5.45.69,7.46-.65A11.29,11.29,0,0,0,24.57,93a10,10,0,0,0,2.51,3.54C30.52,99.62,36,99.35,38.27,95S38.39,85.26,34.56,82.72ZM18.15,95.2l-.34.21c-.63.36-2.56,1.4-2.92.24-.24-.76,1-2.17,1.49-2.66A2.36,2.36,0,0,1,19,92.21a1.36,1.36,0,0,1,.51.36C19.71,93.47,18.91,94.47,18.15,95.2ZM35.05,95a1.42,1.42,0,0,1-.12.13c-3.05,3.07-7.77-.73-9-3.82a6.11,6.11,0,0,1-.4-2.85,6.13,6.13,0,0,1,2.32-3.42,4.17,4.17,0,0,1,.46-.26,3.9,3.9,0,0,1,3.25.42,9.09,9.09,0,0,1,4,5A6.22,6.22,0,0,1,35.05,95Z"/><path class="cls-1" d="M6.3,92.55c-1,.72-2.27,3.77,0,3.71.54,0,.77-.31,1.15-.62s.19-.48.77-.46a1,1,0,0,1,.88,1c.08,1.34-1.28,1.87-2.48,2.05C3.74,98,2.47,94.58,3,92.07c1.1-5.53,6.77-9.48,12.13-10a.85.85,0,0,0,.73-1A.82.82,0,0,0,15,79.81,23.52,23.52,0,0,0,3,86.42c-2.81,3.1-4.32,8-1.63,11.64,2.14,2.91,6.59,3.69,9.1.75a4.44,4.44,0,0,0,.42-5.29A3.39,3.39,0,0,0,6.3,92.55Z"/><path class="cls-1" d="M44.84,81.82a2.81,2.81,0,0,0-3.25.89A3,3,0,0,0,41,84.25a.68.68,0,0,0-.08.63l.13.37a3.13,3.13,0,0,0,.37,1c1.12,1.92,4.33,3.52,6,1.38S47.1,82.55,44.84,81.82Zm-.33,3.86c-.32-.22-1.37-1.69-.4-1.63a.58.58,0,0,0,.19,0l.21.1a4.81,4.81,0,0,1,1,.64,1.45,1.45,0,0,1,.33.5.42.42,0,0,1,0,.16C45.72,86.09,44.9,85.94,44.51,85.68Z"/><path class="cls-1" d="M44.84,90.64a2.79,2.79,0,0,0-3.25.89A3,3,0,0,0,41,93.07a.67.67,0,0,0-.08.63l.13.36a3.19,3.19,0,0,0,.37,1c1.12,1.91,4.33,3.52,6,1.37S47.1,91.37,44.84,90.64Zm-.33,3.85c-.32-.22-1.37-1.68-.4-1.62a1.08,1.08,0,0,0,.19,0l.21.11a4.7,4.7,0,0,1,1,.63,1.67,1.67,0,0,1,.33.5.45.45,0,0,1,0,.16C45.72,94.9,44.9,94.75,44.51,94.49Z"/><path class="cls-1" d="M91.87,49.29a3.26,3.26,0,0,0,.36,1c1.13,1.91,4.34,3.52,6,1.37s-.33-5-2.6-5.77a2.79,2.79,0,0,0-3.24.9,3,3,0,0,0-.59,1.54.67.67,0,0,0-.07.63C91.78,49.05,91.82,49.17,91.87,49.29Zm3-1.19a1.08,1.08,0,0,0,.19,0,1,1,0,0,1,.21.11,4.73,4.73,0,0,1,1,.63,1.42,1.42,0,0,1,.32.5.3.3,0,0,1,0,.16c-.09.66-.91.51-1.31.25S93.94,48,94.91,48.1Z"/><path class="cls-1" d="M91.87,58.11a3.11,3.11,0,0,0,.36,1c1.13,1.92,4.34,3.52,6,1.38s-.33-5-2.6-5.77a2.79,2.79,0,0,0-3.24.89,3.06,3.06,0,0,0-.59,1.54.68.68,0,0,0-.07.63C91.78,57.86,91.82,58,91.87,58.11Zm3-1.2a.58.58,0,0,0,.19,0,1,1,0,0,1,.21.1,4.84,4.84,0,0,1,1,.64,1.48,1.48,0,0,1,.32.49.33.33,0,0,1,0,.17c-.09.65-.91.51-1.31.24S93.94,56.85,94.91,56.91Z"/><path class="cls-1" d="M70.49,97.67l.11-.08A10.9,10.9,0,0,0,75.23,91c.7-3.14-.4-6.44-3.55-7.7a5.92,5.92,0,0,0-7.54,3.24.83.83,0,0,0,0,.51c-.28.86,1,1.57,1.39.69a5.1,5.1,0,0,1,3.34-3,3.33,3.33,0,0,1,3.79,1.74,6.61,6.61,0,0,1-.63,6,2.68,2.68,0,0,0-.76-2c-3.83-4.2-12.23,3.81-8.07,7.77a4.6,4.6,0,0,0,4.57.71,1.56,1.56,0,0,0-.11.26,2.4,2.4,0,0,0,2.21,2.92,2,2,0,0,0,2.12-1.82,7.07,7.07,0,0,1,1.35,1.21,5,5,0,0,1,.95,3,6.16,6.16,0,0,1-3.51,5.2c-4.61,2.33-9.81-.62-12.84-4.13a13.38,13.38,0,0,1-3.15-6.35,16,16,0,0,1,.78-7.64A34.59,34.59,0,0,1,62.09,80a37.06,37.06,0,0,1,9.72-8.1c.65-.34,1.31-.66,2-1,.89-.4.19-1.66-.68-1.39a.77.77,0,0,0-.41.08c-.53.27-1,.56-1.56.85a39.39,39.39,0,0,0-11.9,9.41c-3.82,4.45-7.38,10.21-7.7,16.22-.32,5.85,3.23,11.59,7.9,14.92S71.12,115,75,110.19a8,8,0,0,0,1.45-8.09A7.18,7.18,0,0,0,70.49,97.67ZM68.14,95.2l-.34.21c-.63.36-2.57,1.4-2.93.24-.23-.76,1-2.17,1.5-2.66a2.36,2.36,0,0,1,2.57-.78,1.36,1.36,0,0,1,.51.36C69.7,93.47,68.9,94.47,68.14,95.2Z"/><path class="cls-2" d="M62.83,116.09a179.88,179.88,0,0,1-12.42,23.08,35.45,35.45,0,0,1-2.27,3.05c-.28.33-.86.41-1.3.6a3.19,3.19,0,0,1-.28-1.31c.9-4.12,1.59-8.33,2.87-12.36,1.76-5.51,3.64-11,5.55-16.47A18,18,0,0,0,62.83,116.09Z"/><path class="cls-3" d="M96.2,3.54c-.82,3.79-3.38,6.81-5.06,10.74l3.65-1.91c-.41,1.91-.73,3.41-1.12,5.27l4.22-2.46c-.15,1.79-.26,3.22-.42,5.11l3.58-4c.27,1.47.47,2.51.68,3.64,1.54-1.74,1.75-6.14.09-10.38C100.53,6.23,98.69,3.13,97.13,0c-.09,0,.13,0,.24.05,4.48,4,7.6,8.71,7.77,14.85.23,7.85-3.91,13-11.64,15-3,.78-3,.78-4.46-2-2.57-5.07-2.69-10.16.3-15.06,2-3.27,4.29-6.35,6.46-9.51Z"/><path class="cls-2" d="M90.37,38.59c-1.16,3.43-2.22,6.6-3.31,9.84-3.73-1.49-6.53.19-9.31,2.36q2.7-5.38,5.39-10.79a21.23,21.23,0,0,0,1-2.08c.48-1.31,1.26-1.51,2.45-.94S89,38,90.37,38.59Z"/><path class="cls-2" d="M87.91,30.89c1.12,1.49,2.34,2.25,4.29,1.71-.4,1.36-.75,2.53-1.13,3.81l-5-2Z"/><path class="cls-2" d="M115.06,38a41.9,41.9,0,0,1,4.6,3.08c1.27,1,2.5,2.12,3.79,3.12s2.75,2.19,4.07,3.34,2.59,2.1,3.84,3.2a48.24,48.24,0,0,1,3.71,3.58c.49.52,1,1.06,1.42,1.6.67.81.89,1.1,1.51,1.9l.1.13c.12.15.23.3.34.46l.66.92c.48.71.94,1.43,1.37,2.16s.74,1.31,1.07,2c.15.29.29.59.43.89s.16.34.23.51-.07-.2.1.24a29.92,29.92,0,0,1,1.4,4.55c.08.36.15.73.21,1.1l.09.55c0-.12-.06-.51,0,.07s.13,1.41.14,2.12,0,1.33-.05,2c0,.33-.07.66-.1,1,.05-.61,0-.18,0,0s-.08.49-.13.74a27.21,27.21,0,0,1-1,3.87c-.11.31-.23.62-.35.93-.2.52,0,.1,0,0-.07.16-.13.31-.2.46-.32.67-.67,1.33-1,2a19.28,19.28,0,0,1-1.05,1.66l-.28.39c.07-.09.32-.35,0,0s-.49.54-.75.8a17.55,17.55,0,0,1-1.36,1.23c-.39.33-.12.09,0,0l-.39.28c-.34.23-.68.46-1,.66a15.36,15.36,0,0,1-1.76.9c.51-.22-.36.13-.48.17l-1,.34c-2.61.8-5.31,1.2-8,1.82a16.93,16.93,0,0,0-7.66,3.55,12,12,0,0,0-2.57,3.28,13.81,13.81,0,0,0-1.39,4.39,21.4,21.4,0,0,0,.79,9.4c.46,1.63,1.06,3.22,1.61,4.82a26.61,26.61,0,0,1,1.11,5.23,16.05,16.05,0,0,1,0,4.6,13.65,13.65,0,0,1-.49,1.85c-.06.15-.38.92-.17.46-.15.32-.3.63-.47.94-.3.55-.67,1-1,1.57-.22.34.28-.31,0,0l-.29.36q-.34.41-.72.78c-.44.45-.91.88-1.4,1.29l-.38.31c.09-.07.47-.35,0,0l-.9.62a34.83,34.83,0,0,1-3.56,2l-.9.43-.47.2c.1,0,.6-.24.06,0s-1.33.51-2,.74a34.31,34.31,0,0,1-4,1.07c-.78.16-1.57.3-2.36.43l-.59.09c-.11,0-.63.09,0,0a14.74,14.74,0,0,0-1.88.31c-.76.21-1.52.4-2.3.55a5.86,5.86,0,0,1-.75.13L91,142.3a35.41,35.41,0,0,1-4.94,0,50.69,50.69,0,0,1-9.48-1.4A46.22,46.22,0,0,1,67.34,138q-2.22-1.08-4.35-2.36c-1.86-1.13-3.55,1.78-1.7,2.9a59.26,59.26,0,0,0,19.13,7.72A77.16,77.16,0,0,0,91,147.42c1.7.09,3.39.16,5.09.23a23.06,23.06,0,0,0,5.58-.8c5.84-1.24,11.78-3.81,15.8-8.36a17.29,17.29,0,0,0,4.12-7.8,18.72,18.72,0,0,0-1.41-11,48.13,48.13,0,0,1-3.16-9.85c-.49-2.72-.53-5.71,1.2-8a6.4,6.4,0,0,1,.65-.73l.33-.32c.53-.49-.15.08.18-.15a15.08,15.08,0,0,1,1.65-1c.26-.15.53-.28.8-.42.65-.33-.27.1.14-.06l.43-.17a17.91,17.91,0,0,1,1.89-.58c2.75-.71,5.54-1.16,8.3-1.81a21.79,21.79,0,0,0,8.09-3.53,23.42,23.42,0,0,0,6.17-6.83,24.65,24.65,0,0,0,2.28-18.39,35.67,35.67,0,0,0-10.5-17.14A43.38,43.38,0,0,0,130,44.32a72.86,72.86,0,0,0-9.76-4.27,49.89,49.89,0,0,1-5.08-2.24c-.16-.07-.29.14-.14.23Z"/><path class="cls-2" d="M75.89,12.42a4.38,4.38,0,0,0-.37-1.09,7,7,0,0,0-.82-1,15.26,15.26,0,0,0-2.42-2,41.8,41.8,0,0,0-5.12-2.93A42,42,0,0,0,55.94,2.1a46,46,0,0,0-12.06-.58A46.35,46.35,0,0,0,32.31,4.14a42,42,0,0,0-19,14.08,46.74,46.74,0,0,0-8.68,21,39.43,39.43,0,0,0,.17,13.14,59.78,59.78,0,0,0,1.5,6c.31,1,.65,2,1,3.06A7,7,0,0,0,9,64.23a.82.82,0,0,0,1.39-.57A8,8,0,0,0,9.85,61c-.3-.86-.58-1.73-.82-2.6a29,29,0,0,1-.93-5.23,57.52,57.52,0,0,1,.22-10.66A43.36,43.36,0,0,1,15.43,22.9,39.28,39.28,0,0,1,31.36,9.17,42.46,42.46,0,0,1,41.88,5.93,58.23,58.23,0,0,1,52.65,5.3,37.26,37.26,0,0,1,64.76,7.83a50.51,50.51,0,0,1,5.56,2.38c.91.47,1.84.94,2.75,1.42.45.23.9.4,1.37.59a4,4,0,0,0,1.43.23s0,0,0,0Z"/><path class="cls-2" d="M23.83,103.35a2.25,2.25,0,0,0-.15,1.28,5.18,5.18,0,0,0,.81,1.67c.69,1,1.52,2,2.3,2.94,1.58,1.94,3.29,3.74,5.05,5.51s3.51,3.38,5.35,5c1,.83,1.94,1.65,2.92,2.45s2.23,2.18,3.45,2.37a2,2,0,0,0,2.19-2.85c-.48-1.06-1.93-1.81-2.84-2.54s-1.91-1.52-2.84-2.31c-1.87-1.56-3.69-3.19-5.48-4.84s-3.53-3.38-5.29-5.06c-.84-.81-1.63-1.67-2.5-2.44a6.13,6.13,0,0,0-1.53-1.1,2.27,2.27,0,0,0-1.36-.12.1.1,0,0,0-.08.06Z"/></g></g></svg>